<?xml version="1.0" standalone="no"?>
<!DOCTYPE svg PUBLIC "-//W3C//DTD SVG 1.1//EN" "http://www.w3.org/Graphics/SVG/1.1/DTD/svg11.dtd">
<svg xmlns="http://www.w3.org/2000/svg"  width="100" height="100">
<circle cx="31" cy="85" r="2" fill="black" /><circle cx="20" cy="91" r="2" fill="blue" /><line x1="31" y1="85" x2="20" y2="91" stroke="black" stroke-width ="2" />
<circle cx="79" cy="55" r="2" fill="red" /><circle cx="37" cy="14" r="2" fill="yellow" /><line x1="79" y1="55" x2="37" y2="14" stroke="black" stroke-width ="2" />
<circle cx="65" cy="75" r="2" fill="orange" /><circle cx="9" cy="44" r="2" fill="blue" /><line x1="65" y1="75" x2="9" y2="44" stroke="gray" stroke-width ="2" />
<circle cx="73" cy="2" r="2" fill="black" /><circle cx="20" cy="58" r="2" fill="gray" /><line x1="73" y1="2" x2="20" y2="58" stroke="green" stroke-width ="2" />
<circle cx="57" cy="23" r="2" fill="orange" /><circle cx="64" cy="85" r="2" fill="red" /><line x1="57" y1="23" x2="64" y2="85" stroke="orange" stroke-width ="2" />
<circle cx="49" cy="39" r="2" fill="blue" /><circle cx="92" cy="14" r="2" fill="blue" /><line x1="49" y1="39" x2="92" y2="14" stroke="red" stroke-width ="2" />
<circle cx="99" cy="6" r="2" fill="blue" /><circle cx="65" cy="79" r="2" fill="red" /><line x1="99" y1="6" x2="65" y2="79" stroke="blue" stroke-width ="2" />
<circle cx="40" cy="46" r="2" fill="gray" /><circle cx="84" cy="12" r="2" fill="green" /><line x1="40" y1="46" x2="84" y2="12" stroke="yellow" stroke-width ="2" />
<circle cx="39" cy="56" r="2" fill="yellow" /><circle cx="97" cy="80" r="2" fill="yellow" /><line x1="39" y1="56" x2="97" y2="80" stroke="yellow" stroke-width ="2" />
<circle cx="72" cy="91" r="2" fill="green" /><circle cx="57" cy="89" r="2" fill="blue" /><line x1="72" y1="91" x2="57" y2="89" stroke="gray" stroke-width ="2" />
<circle cx="96" cy="99" r="2" fill="purple" /><circle cx="10" cy="91" r="2" fill="red" /><line x1="96" y1="99" x2="10" y2="91" stroke="purple" stroke-width ="2" />
<circle cx="68" cy="4" r="2" fill="blue" /><circle cx="99" cy="48" r="2" fill="purple" /><line x1="68" y1="4" x2="99" y2="48" stroke="yellow" stroke-width ="2" />
<circle cx="45" cy="81" r="2" fill="orange" /><circle cx="58" cy="80" r="2" fill="yellow" /><line x1="45" y1="81" x2="58" y2="80" stroke="yellow" stroke-width ="2" />
<circle cx="66" cy="41" r="2" fill="red" /><circle cx="46" cy="75" r="2" fill="yellow" /><line x1="66" y1="41" x2="46" y2="75" stroke="black" stroke-width ="2" />
<circle cx="38" cy="29" r="2" fill="orange" /><circle cx="27" cy="41" r="2" fill="gray" /><line x1="38" y1="29" x2="27" y2="41" stroke="green" stroke-width ="2" />
<circle cx="78" cy="17" r="2" fill="gray" /><circle cx="22" cy="94" r="2" fill="purple" /><line x1="78" y1="17" x2="22" y2="94" stroke="orange" stroke-width ="2" />
<circle cx="26" cy="15" r="2" fill="red" /><circle cx="26" cy="35" r="2" fill="red" /><line x1="26" y1="15" x2="26" y2="35" stroke="gray" stroke-width ="2" />
<circle cx="7" cy="21" r="2" fill="orange" /><circle cx="88" cy="99" r="2" fill="blue" /><line x1="7" y1="21" x2="88" y2="99" stroke="black" stroke-width ="2" />
<circle cx="29" cy="13" r="2" fill="black" /><circle cx="56" cy="67" r="2" fill="red" /><line x1="29" y1="13" x2="56" y2="67" stroke="black" stroke-width ="2" />
<circle cx="85" cy="69" r="2" fill="gray" /><circle cx="27" cy="96" r="2" fill="gray" /><line x1="85" y1="69" x2="27" y2="96" stroke="orange" stroke-width ="2" />
<circle cx="96" cy="27" r="2" fill="red" /><circle cx="91" cy="7" r="2" fill="black" /><line x1="96" y1="27" x2="91" y2="7" stroke="blue" stroke-width ="2" />
<circle cx="6" cy="96" r="2" fill="purple" /><circle cx="94" cy="6" r="2" fill="gray" /><line x1="6" y1="96" x2="94" y2="6" stroke="black" stroke-width ="2" />
<circle cx="15" cy="15" r="2" fill="gray" /><circle cx="66" cy="69" r="2" fill="black" /><line x1="15" y1="15" x2="66" y2="69" stroke="black" stroke-width ="2" />
<circle cx="79" cy="82" r="2" fill="green" /><circle cx="98" cy="13" r="2" fill="green" /><line x1="79" y1="82" x2="98" y2="13" stroke="purple" stroke-width ="2" />
<circle cx="20" cy="90" r="2" fill="red" /><circle cx="16" cy="58" r="2" fill="blue" /><line x1="20" y1="90" x2="16" y2="58" stroke="blue" stroke-width ="2" />
<circle cx="95" cy="53" r="2" fill="red" /><circle cx="2" cy="78" r="2" fill="blue" /><line x1="95" y1="53" x2="2" y2="78" stroke="gray" stroke-width ="2" />
<circle cx="51" cy="26" r="2" fill="orange" /><circle cx="9" cy="51" r="2" fill="green" /><line x1="51" y1="26" x2="9" y2="51" stroke="yellow" stroke-width ="2" />
<circle cx="24" cy="3" r="2" fill="black" /><circle cx="93" cy="14" r="2" fill="purple" /><line x1="24" y1="3" x2="93" y2="14" stroke="yellow" stroke-width ="2" />
<circle cx="27" cy="13" r="2" fill="red" /><circle cx="92" cy="93" r="2" fill="gray" /><line x1="27" y1="13" x2="92" y2="93" stroke="orange" stroke-width ="2" />
<circle cx="35" cy="29" r="2" fill="black" /><circle cx="93" cy="2" r="2" fill="gray" /><line x1="35" y1="29" x2="93" y2="2" stroke="blue" stroke-width ="2" />
<circle cx="46" cy="3" r="2" fill="gray" /><circle cx="76" cy="52" r="2" fill="red" /><line x1="46" y1="3" x2="76" y2="52" stroke="yellow" stroke-width ="2" />
<circle cx="54" cy="92" r="2" fill="green" /><circle cx="6" cy="90" r="2" fill="purple" /><line x1="54" y1="92" x2="6" y2="90" stroke="purple" stroke-width ="2" />
<circle cx="61" cy="83" r="2" fill="purple" /><circle cx="75" cy="42" r="2" fill="gray" /><line x1="61" y1="83" x2="75" y2="42" stroke="black" stroke-width ="2" />
<circle cx="40" cy="20" r="2" fill="orange" /><circle cx="33" cy="77" r="2" fill="black" /><line x1="40" y1="20" x2="33" y2="77" stroke="purple" stroke-width ="2" />
<circle cx="14" cy="32" r="2" fill="orange" /><circle cx="16" cy="60" r="2" fill="black" /><line x1="14" y1="32" x2="16" y2="60" stroke="yellow" stroke-width ="2" />
<circle cx="71" cy="55" r="2" fill="purple" /><circle cx="23" cy="94" r="2" fill="red" /><line x1="71" y1="55" x2="23" y2="94" stroke="orange" stroke-width ="2" />
<circle cx="67" cy="40" r="2" fill="green" /><circle cx="58" cy="88" r="2" fill="yellow" /><line x1="67" y1="40" x2="58" y2="88" stroke="orange" stroke-width ="2" />
<circle cx="93" cy="46" r="2" fill="black" /><circle cx="87" cy="79" r="2" fill="orange" /><line x1="93" y1="46" x2="87" y2="79" stroke="yellow" stroke-width ="2" />
<circle cx="7" cy="58" r="2" fill="orange" /><circle cx="84" cy="65" r="2" fill="gray" /><line x1="7" y1="58" x2="84" y2="65" stroke="blue" stroke-width ="2" />
<circle cx="69" cy="16" r="2" fill="red" /><circle cx="81" cy="2" r="2" fill="red" /><line x1="69" y1="16" x2="81" y2="2" stroke="blue" stroke-width ="2" />
<circle cx="36" cy="81" r="2" fill="purple" /><circle cx="83" cy="6" r="2" fill="green" /><line x1="36" y1="81" x2="83" y2="6" stroke="orange" stroke-width ="2" />
<circle cx="23" cy="59" r="2" fill="blue" /><circle cx="63" cy="67" r="2" fill="orange" /><line x1="23" y1="59" x2="63" y2="67" stroke="purple" stroke-width ="2" />
<circle cx="61" cy="33" r="2" fill="gray" /><circle cx="41" cy="12" r="2" fill="orange" /><line x1="61" y1="33" x2="41" y2="12" stroke="gray" stroke-width ="2" />
<circle cx="99" cy="66" r="2" fill="orange" /><circle cx="16" cy="60" r="2" fill="yellow" /><line x1="99" y1="66" x2="16" y2="60" stroke="blue" stroke-width ="2" />
<circle cx="32" cy="39" r="2" fill="black" /><circle cx="34" cy="32" r="2" fill="green" /><line x1="32" y1="39" x2="34" y2="32" stroke="green" stroke-width ="2" />
<circle cx="15" cy="42" r="2" fill="purple" /><circle cx="73" cy="75" r="2" fill="green" /><line x1="15" y1="42" x2="73" y2="75" stroke="black" stroke-width ="2" />
<circle cx="85" cy="31" r="2" fill="gray" /><circle cx="4" cy="55" r="2" fill="orange" /><line x1="85" y1="31" x2="4" y2="55" stroke="orange" stroke-width ="2" />
<circle cx="38" cy="89" r="2" fill="green" /><circle cx="50" cy="16" r="2" fill="red" /><line x1="38" y1="89" x2="50" y2="16" stroke="blue" stroke-width ="2" />
<circle cx="69" cy="83" r="2" fill="blue" /><circle cx="29" cy="57" r="2" fill="red" /><line x1="69" y1="83" x2="29" y2="57" stroke="orange" stroke-width ="2" />
<circle cx="21" cy="67" r="2" fill="red" /><circle cx="53" cy="99" r="2" fill="blue" /><line x1="21" y1="67" x2="53" y2="99" stroke="purple" stroke-width ="2" />
</svg>
