<?xml version="1.0" standalone="no"?>
<!DOCTYPE svg PUBLIC "-//W3C//DTD SVG 1.1//EN" "http://www.w3.org/Graphics/SVG/1.1/DTD/svg11.dtd">
<svg xmlns="http://www.w3.org/2000/svg"  width="100" height="100">
<circle cx="4" cy="0" r="2" fill="gray" /><circle cx="14" cy="55" r="2" fill="blue" /><line x1="4" y1="0" x2="14" y2="55" stroke="orange" stroke-width ="2" />
<circle cx="44" cy="71" r="2" fill="yellow" /><circle cx="57" cy="22" r="2" fill="yellow" /><line x1="44" y1="71" x2="57" y2="22" stroke="blue" stroke-width ="2" />
<circle cx="86" cy="89" r="2" fill="orange" /><circle cx="62" cy="47" r="2" fill="yellow" /><line x1="86" y1="89" x2="62" y2="47" stroke="yellow" stroke-width ="2" />
<circle cx="94" cy="48" r="2" fill="red" /><circle cx="71" cy="15" r="2" fill="gray" /><line x1="94" y1="48" x2="71" y2="15" stroke="yellow" stroke-width ="2" />
<circle cx="60" cy="25" r="2" fill="purple" /><circle cx="91" cy="87" r="2" fill="purple" /><line x1="60" y1="25" x2="91" y2="87" stroke="yellow" stroke-width ="2" />
<circle cx="43" cy="8" r="2" fill="yellow" /><circle cx="98" cy="52" r="2" fill="blue" /><line x1="43" y1="8" x2="98" y2="52" stroke="yellow" stroke-width ="2" />
<circle cx="21" cy="96" r="2" fill="blue" /><circle cx="44" cy="98" r="2" fill="orange" /><line x1="21" y1="96" x2="44" y2="98" stroke="purple" stroke-width ="2" />
<circle cx="85" cy="92" r="2" fill="green" /><circle cx="33" cy="54" r="2" fill="yellow" /><line x1="85" y1="92" x2="33" y2="54" stroke="gray" stroke-width ="2" />
<circle cx="33" cy="40" r="2" fill="blue" /><circle cx="49" cy="65" r="2" fill="green" /><line x1="33" y1="40" x2="49" y2="65" stroke="black" stroke-width ="2" />
<circle cx="26" cy="52" r="2" fill="blue" /><circle cx="14" cy="50" r="2" fill="black" /><line x1="26" y1="52" x2="14" y2="50" stroke="green" stroke-width ="2" />
<circle cx="74" cy="35" r="2" fill="black" /><circle cx="26" cy="25" r="2" fill="purple" /><line x1="74" y1="35" x2="26" y2="25" stroke="gray" stroke-width ="2" />
<circle cx="74" cy="82" r="2" fill="gray" /><circle cx="24" cy="34" r="2" fill="gray" /><line x1="74" y1="82" x2="24" y2="34" stroke="yellow" stroke-width ="2" />
<circle cx="68" cy="44" r="2" fill="green" /><circle cx="74" cy="41" r="2" fill="purple" /><line x1="68" y1="44" x2="74" y2="41" stroke="green" stroke-width ="2" />
<circle cx="15" cy="51" r="2" fill="gray" /><circle cx="80" cy="8" r="2" fill="green" /><line x1="15" y1="51" x2="80" y2="8" stroke="black" stroke-width ="2" />
<circle cx="85" cy="36" r="2" fill="yellow" /><circle cx="87" cy="76" r="2" fill="green" /><line x1="85" y1="36" x2="87" y2="76" stroke="blue" stroke-width ="2" />
<circle cx="22" cy="7" r="2" fill="black" /><circle cx="48" cy="34" r="2" fill="purple" /><line x1="22" y1="7" x2="48" y2="34" stroke="gray" stroke-width ="2" />
<circle cx="82" cy="60" r="2" fill="blue" /><circle cx="16" cy="7" r="2" fill="blue" /><line x1="82" y1="60" x2="16" y2="7" stroke="blue" stroke-width ="2" />
<circle cx="61" cy="2" r="2" fill="red" /><circle cx="54" cy="30" r="2" fill="black" /><line x1="61" y1="2" x2="54" y2="30" stroke="blue" stroke-width ="2" />
<circle cx="57" cy="44" r="2" fill="orange" /><circle cx="65" cy="91" r="2" fill="black" /><line x1="57" y1="44" x2="65" y2="91" stroke="yellow" stroke-width ="2" />
<circle cx="53" cy="87" r="2" fill="green" /><circle cx="29" cy="61" r="2" fill="gray" /><line x1="53" y1="87" x2="29" y2="61" stroke="blue" stroke-width ="2" />
<circle cx="89" cy="2" r="2" fill="red" /><circle cx="23" cy="17" r="2" fill="red" /><line x1="89" y1="2" x2="23" y2="17" stroke="red" stroke-width ="2" />
<circle cx="35" cy="10" r="2" fill="gray" /><circle cx="94" cy="30" r="2" fill="blue" /><line x1="35" y1="10" x2="94" y2="30" stroke="orange" stroke-width ="2" />
<circle cx="96" cy="75" r="2" fill="purple" /><circle cx="79" cy="88" r="2" fill="black" /><line x1="96" y1="75" x2="79" y2="88" stroke="orange" stroke-width ="2" />
<circle cx="23" cy="27" r="2" fill="blue" /><circle cx="14" cy="82" r="2" fill="yellow" /><line x1="23" y1="27" x2="14" y2="82" stroke="black" stroke-width ="2" />
<circle cx="53" cy="69" r="2" fill="black" /><circle cx="66" cy="41" r="2" fill="red" /><line x1="53" y1="69" x2="66" y2="41" stroke="orange" stroke-width ="2" />
<circle cx="20" cy="0" r="2" fill="orange" /><circle cx="89" cy="33" r="2" fill="purple" /><line x1="20" y1="0" x2="89" y2="33" stroke="red" stroke-width ="2" />
<circle cx="0" cy="15" r="2" fill="purple" /><circle cx="82" cy="30" r="2" fill="black" /><line x1="0" y1="15" x2="82" y2="30" stroke="purple" stroke-width ="2" />
<circle cx="57" cy="14" r="2" fill="blue" /><circle cx="45" cy="11" r="2" fill="gray" /><line x1="57" y1="14" x2="45" y2="11" stroke="gray" stroke-width ="2" />
<circle cx="73" cy="62" r="2" fill="orange" /><circle cx="7" cy="23" r="2" fill="green" /><line x1="73" y1="62" x2="7" y2="23" stroke="green" stroke-width ="2" />
<circle cx="76" cy="49" r="2" fill="red" /><circle cx="17" cy="80" r="2" fill="black" /><line x1="76" y1="49" x2="17" y2="80" stroke="purple" stroke-width ="2" />
<circle cx="69" cy="93" r="2" fill="green" /><circle cx="2" cy="95" r="2" fill="purple" /><line x1="69" y1="93" x2="2" y2="95" stroke="black" stroke-width ="2" />
<circle cx="69" cy="25" r="2" fill="red" /><circle cx="52" cy="38" r="2" fill="blue" /><line x1="69" y1="25" x2="52" y2="38" stroke="yellow" stroke-width ="2" />
<circle cx="66" cy="49" r="2" fill="red" /><circle cx="30" cy="5" r="2" fill="black" /><line x1="66" y1="49" x2="30" y2="5" stroke="purple" stroke-width ="2" />
<circle cx="92" cy="92" r="2" fill="blue" /><circle cx="15" cy="54" r="2" fill="gray" /><line x1="92" y1="92" x2="15" y2="54" stroke="red" stroke-width ="2" />
<circle cx="16" cy="30" r="2" fill="black" /><circle cx="49" cy="59" r="2" fill="blue" /><line x1="16" y1="30" x2="49" y2="59" stroke="purple" stroke-width ="2" />
<circle cx="42" cy="7" r="2" fill="red" /><circle cx="90" cy="75" r="2" fill="gray" /><line x1="42" y1="7" x2="90" y2="75" stroke="black" stroke-width ="2" />
<circle cx="15" cy="32" r="2" fill="red" /><circle cx="5" cy="42" r="2" fill="purple" /><line x1="15" y1="32" x2="5" y2="42" stroke="gray" stroke-width ="2" />
<circle cx="54" cy="34" r="2" fill="black" /><circle cx="12" cy="35" r="2" fill="purple" /><line x1="54" y1="34" x2="12" y2="35" stroke="yellow" stroke-width ="2" />
<circle cx="56" cy="82" r="2" fill="orange" /><circle cx="11" cy="54" r="2" fill="red" /><line x1="56" y1="82" x2="11" y2="54" stroke="yellow" stroke-width ="2" />
<circle cx="41" cy="33" r="2" fill="yellow" /><circle cx="1" cy="40" r="2" fill="black" /><line x1="41" y1="33" x2="1" y2="40" stroke="yellow" stroke-width ="2" />
<circle cx="60" cy="12" r="2" fill="red" /><circle cx="87" cy="5" r="2" fill="black" /><line x1="60" y1="12" x2="87" y2="5" stroke="orange" stroke-width ="2" />
<circle cx="71" cy="53" r="2" fill="orange" /><circle cx="13" cy="70" r="2" fill="gray" /><line x1="71" y1="53" x2="13" y2="70" stroke="orange" stroke-width ="2" />
<circle cx="99" cy="91" r="2" fill="orange" /><circle cx="35" cy="78" r="2" fill="orange" /><line x1="99" y1="91" x2="35" y2="78" stroke="green" stroke-width ="2" />
<circle cx="69" cy="48" r="2" fill="orange" /><circle cx="24" cy="62" r="2" fill="purple" /><line x1="69" y1="48" x2="24" y2="62" stroke="yellow" stroke-width ="2" />
<circle cx="9" cy="91" r="2" fill="black" /><circle cx="50" cy="37" r="2" fill="green" /><line x1="9" y1="91" x2="50" y2="37" stroke="purple" stroke-width ="2" />
<circle cx="14" cy="84" r="2" fill="green" /><circle cx="72" cy="74" r="2" fill="gray" /><line x1="14" y1="84" x2="72" y2="74" stroke="green" stroke-width ="2" />
<circle cx="25" cy="53" r="2" fill="orange" /><circle cx="47" cy="0" r="2" fill="blue" /><line x1="25" y1="53" x2="47" y2="0" stroke="orange" stroke-width ="2" />
<circle cx="38" cy="3" r="2" fill="black" /><circle cx="68" cy="61" r="2" fill="orange" /><line x1="38" y1="3" x2="68" y2="61" stroke="purple" stroke-width ="2" />
<circle cx="68" cy="83" r="2" fill="green" /><circle cx="30" cy="62" r="2" fill="blue" /><line x1="68" y1="83" x2="30" y2="62" stroke="green" stroke-width ="2" />
<circle cx="22" cy="51" r="2" fill="purple" /><circle cx="11" cy="82" r="2" fill="gray" /><line x1="22" y1="51" x2="11" y2="82" stroke="blue" stroke-width ="2" />
</svg>
